<?xml version="1.0" encoding="UTF-8" standalone="no"?>
<!-- Created with Inkscape (http://www.inkscape.org/) -->

<svg
   width="2800"
   height="1200"
   viewBox="0 0 740.83333 317.5"
   version="1.1"
   id="svg1"
   inkscape:version="1.4.4 (dcaf3e7d9e, 2026-05-05)"
   sodipodi:docname="full_logo_color.svg"
   xml:space="preserve"
   inkscape:export-filename="full_logo_color.png"
   inkscape:export-xdpi="96"
   inkscape:export-ydpi="96"
   xmlns:inkscape="http://www.inkscape.org/namespaces/inkscape"
   xmlns:sodipodi="http://sodipodi.sourceforge.net/DTD/sodipodi-0.dtd"
   xmlns:xlink="http://www.w3.org/1999/xlink"
   xmlns="http://www.w3.org/2000/svg"
   xmlns:svg="http://www.w3.org/2000/svg"><sodipodi:namedview
     id="namedview1"
     pagecolor="#404040"
     bordercolor="#000000"
     borderopacity="0.25"
     inkscape:showpageshadow="2"
     inkscape:pageopacity="0.0"
     inkscape:pagecheckerboard="0"
     inkscape:deskcolor="#d1d1d1"
     inkscape:document-units="mm"
     inkscape:zoom="0.2993266"
     inkscape:cx="816.83352"
     inkscape:cy="1763.9595"
     inkscape:window-width="2560"
     inkscape:window-height="1568"
     inkscape:window-x="0"
     inkscape:window-y="32"
     inkscape:window-maximized="1"
     inkscape:current-layer="layer1" /><defs
     id="defs1"><path
       id="SVGID_1_"
       d="M 48.71,118.85 C 28.36,115.81 9.29,104.2 4.44,82.71 -1.33,57.18 18.87,38.87 43.06,37.61 c 5.76,-0.3 11.55,0.33 17.03,2.16 5.42,1.82 10.34,4.76 14.92,8.13 4.39,3.22 8.5,6.8 12.91,9.99 2.18,1.58 4.43,3.06 6.8,4.33 2.76,1.48 5.19,2.49 8.27,1.29 1.01,-0.4 1.94,-0.97 2.74,-1.71 2.29,-2.12 3.17,-5.36 3.02,-8.4 -0.04,-0.82 -0.15,-1.66 -0.32,-2.46 -0.2,-0.87 -0.59,-2.34 -1.25,-2.97 -1.4,-1.36 -3.74,-0.18 -5.25,0.27 -0.97,0.29 -1.94,0.63 -2.95,0.7 C 95.68,49.2 92.12,47.85 89.79,45.5 89,44.72 87.77,43.14 88,41.94 c 0.26,-1.36 2.17,-0.6 3.07,-0.77 0.81,-0.16 1.51,-0.42 2.23,-0.83 1.63,-0.92 3.11,-2.07 4.94,-2.59 2.33,-0.67 4.76,-0.22 6.93,0.76 0.19,0.08 0.38,0.17 0.57,0.27 0.49,0.25 0.98,0.77 1.53,0.88 0.75,0.16 0.73,-0.62 0.77,-1.19 0.05,-0.79 0.04,-1.68 0.25,-2.44 0.48,-1.76 1.73,-3.44 3.38,-4.24 1.9,-0.91 4.1,-0.68 6,-1.62 0.53,-0.27 1.1,-0.58 1.56,-0.97 0.45,-0.38 0.85,-0.86 1.22,-1.31 0.25,-0.31 0.48,-0.75 0.88,-0.89 0.18,-0.07 0.33,-0.07 0.47,0.07 1.12,1.12 1.58,2.91 1.84,4.41 0.26,1.56 0.46,3.21 -0.06,4.73 -0.29,0.82 -0.79,1.67 -1.37,2.31 -0.69,0.75 -1.59,1.56 -2.49,2.05 -1.58,0.86 -3.42,1.25 -4.74,2.55 -1.35,1.33 -0.41,2.91 0.66,4.06 1.48,1.58 2.92,3.14 4.01,5.02 3.33,5.69 4.13,13.96 3.94,18.19 -0.05,1.21 -0.17,2.41 -0.35,3.6 -0.54,3.63 -1.53,7.19 -2.88,10.59 -0.61,1.54 -1.32,3.05 -2.11,4.5 -1.64,3.01 -3.69,5.94 -5.97,8.51 -3,3.39 -6.57,6.87 -10.3,9.45 -4.22,2.92 -9.05,5.57 -13.87,7.37 -6.41,2.38 -13.54,4.08 -20.34,4.83 -6.22,0.67 -12.7,0.56 -19.06,-0.39 z" /></defs><g
     inkscape:label="Calque 1"
     inkscape:groupmode="layer"
     id="layer1"><g
       id="g5"
       transform="matrix(-2.5166498,0,0,2.5166498,321.96111,-25.74685)"
       style="fill:#6885c4;fill-opacity:1"><g
         id="g2"
         style="fill:#6885c4;fill-opacity:1"><defs
           id="defs1-2"><path
             id="path301"
             d="M 48.71,118.85 C 28.36,115.81 9.29,104.2 4.44,82.71 -1.33,57.18 18.87,38.87 43.06,37.61 c 5.76,-0.3 11.55,0.33 17.03,2.16 5.42,1.82 10.34,4.76 14.92,8.13 4.39,3.22 8.5,6.8 12.91,9.99 2.18,1.58 4.43,3.06 6.8,4.33 2.76,1.48 5.19,2.49 8.27,1.29 1.01,-0.4 1.94,-0.97 2.74,-1.71 2.29,-2.12 3.17,-5.36 3.02,-8.4 -0.04,-0.82 -0.15,-1.66 -0.32,-2.46 -0.2,-0.87 -0.59,-2.34 -1.25,-2.97 -1.4,-1.36 -3.74,-0.18 -5.25,0.27 -0.97,0.29 -1.94,0.63 -2.95,0.7 C 95.68,49.2 92.12,47.85 89.79,45.5 89,44.72 87.77,43.14 88,41.94 c 0.26,-1.36 2.17,-0.6 3.07,-0.77 0.81,-0.16 1.51,-0.42 2.23,-0.83 1.63,-0.92 3.11,-2.07 4.94,-2.59 2.33,-0.67 4.76,-0.22 6.93,0.76 0.19,0.08 0.38,0.17 0.57,0.27 0.49,0.25 0.98,0.77 1.53,0.88 0.75,0.16 0.73,-0.62 0.77,-1.19 0.05,-0.79 0.04,-1.68 0.25,-2.44 0.48,-1.76 1.73,-3.44 3.38,-4.24 1.9,-0.91 4.1,-0.68 6,-1.62 0.53,-0.27 1.1,-0.58 1.56,-0.97 0.45,-0.38 0.85,-0.86 1.22,-1.31 0.25,-0.31 0.48,-0.75 0.88,-0.89 0.18,-0.07 0.33,-0.07 0.47,0.07 1.12,1.12 1.58,2.91 1.84,4.41 0.26,1.56 0.46,3.21 -0.06,4.73 -0.29,0.82 -0.79,1.67 -1.37,2.31 -0.69,0.75 -1.59,1.56 -2.49,2.05 -1.58,0.86 -3.42,1.25 -4.74,2.55 -1.35,1.33 -0.41,2.91 0.66,4.06 1.48,1.58 2.92,3.14 4.01,5.02 3.33,5.69 4.13,13.96 3.94,18.19 -0.05,1.21 -0.17,2.41 -0.35,3.6 -0.54,3.63 -1.53,7.19 -2.88,10.59 -0.61,1.54 -1.32,3.05 -2.11,4.5 -1.64,3.01 -3.69,5.94 -5.97,8.51 -3,3.39 -6.57,6.87 -10.3,9.45 -4.22,2.92 -9.05,5.57 -13.87,7.37 -6.41,2.38 -13.54,4.08 -20.34,4.83 -6.22,0.67 -12.7,0.56 -19.06,-0.39 z" /></defs><path
           id="use1"
           style="fill:#6885c4;fill-opacity:1"
           d="m 121.5506,26.95411 c -0.0689,-0.002 -0.14179,0.01517 -0.22054,0.0458 -0.4,0.14 -0.63001,0.58003 -0.88001,0.89003 -0.37,0.45 -0.77005,0.930081 -1.22005,1.310081 -0.46,0.39 -1.02991,0.70003 -1.55991,0.97003 -1.9,0.94 -4.10004,0.709862 -6.00004,1.619862 -1.65,0.8 -2.90007,2.480024 -3.38007,4.240024 -0.21,0.76 -0.20002,1.650112 -0.25002,2.440112 -0.04,0.57 -0.0199,1.349982 -0.76993,1.189982 -0.55,-0.11 -1.04004,-0.630005 -1.53004,-0.880005 -0.19,-0.1 -0.38002,-0.190075 -0.57002,-0.270075 -2.17,-0.98 -4.59997,-1.429906 -6.929969,-0.759906 -1.83,0.52 -3.309979,1.669892 -4.939979,2.589892 -0.72,0.41 -1.419988,0.670078 -2.229988,0.830078 -0.9,0.17 -2.810091,-0.590069 -3.070091,0.769931 -0.23,1.2 1.000083,2.780119 1.790083,3.560119 2.33,2.35 5.890028,3.700019 9.190028,3.440019 1.01,-0.07 1.979996,-0.410151 2.949996,-0.700151 1.51,-0.45 3.84995,-1.629879 5.24995,-0.269879 0.66,0.63 1.04994,2.100042 1.24994,2.970042 0.17,0.8 0.28,1.639964 0.32,2.459964 0.15,3.04 -0.72997,6.279852 -3.01997,8.399852 -0.8,0.74 -1.73006,1.310083 -2.74006,1.710083 -3.080005,1.2 -5.509929,0.189968 -8.269929,-1.290032 -2.37,-1.27 -4.620039,-2.750049 -6.800039,-4.330049 -4.41,-3.19 -8.519951,-6.769836 -12.909951,-9.989836 -4.58,-3.37 -9.499986,-6.310169 -14.919986,-8.130169 -5.48,-1.83 -11.270073,-2.459816 -17.030073,-2.159816 -20.660691,1.076166 -38.4105993,14.590043 -39.5552133,34.4171 2.8344304,-3.944269 7.5061683,-6.140816 12.2852793,-6.797287 1.47,-0.205 2.949973,-0.312493 4.428723,-0.306243 1.47875,0.0062 2.956253,0.126415 4.421253,0.376415 2.13,0.36 4.359938,0.94001 6.359938,1.76001 2.66,1.1 5.170117,2.509876 7.550117,4.099876 2.01,1.34 3.949887,2.76995 5.939887,4.12995 2.45,1.68 5.01002,3.280073 7.83002,4.260073 3.52,1.23 7.680161,2.189927 11.080161,0.129927 0.42,-0.26 1.249813,-0.79 1.599813,-0.16 0.3,0.55 -0.219832,1.080082 -0.569832,1.470082 -0.54,0.59 -1.340085,1.080082 -2.030085,1.470082 -1.73,0.98 -3.700032,1.429861 -5.680032,1.459861 -1.55,0.02 -3.100051,-0.03985 -4.650051,-0.179854 -7.62,-0.72 -14.079899,-4.230139 -21.029899,-7.080139 -1.94,-0.8 -3.92996,-1.509864 -5.96996,-2.019864 -2.68,-0.67 -5.460023,-0.960151 -8.230023,-0.700151 -2.31,0.23 -4.749966,0.780009 -6.9299657,1.600009 -2.1627168,0.815829 -4.3136325,1.631673 -6.2019026,2.926208 0.1641436,1.390543 0.4067702,2.805639 0.7317977,4.243759 4.85,21.490003 23.9201296,33.100153 44.2701296,36.140153 6.36,0.95 12.839961,1.05998 19.059961,0.38998 6.8,-0.75 13.929969,-2.4501 20.339969,-4.8301 4.82,-1.8 9.649956,-4.44987 13.869953,-7.36987 3.73,-2.58 7.30001,-6.06008 10.30001,-9.450078 2.28,-2.57 4.32996,-5.499926 5.96996,-8.509926 0.79,-1.45 1.50009,-2.960074 2.11009,-4.500074 1.35,-3.4 2.34002,-6.959938 2.88002,-10.589938 0.18,-1.19 0.29987,-2.39002 0.34987,-3.60002 0.19,-4.23 -0.60987,-12.499981 -3.93987,-18.189981 -1.09,-1.88 -2.53005,-3.43998 -4.01005,-5.01998 -1.07,-1.15 -2.01005,-2.73017 -0.66005,-4.06017 1.32,-1.3 3.16008,-1.68999 4.74008,-2.54999 0.9,-0.49 1.80003,-1.299938 2.49003,-2.049938 0.58,-0.64 1.08004,-1.489989 1.37004,-2.309989 0.52,-1.52 0.31995,-3.170052 0.06,-4.730052 -0.26,-1.5 -0.72001,-3.289853 -1.84001,-4.409853 -0.0787,-0.07875 -0.1608,-0.113356 -0.24944,-0.115971 z M 59.803222,62.440701 c 2.150998,-0.08033 4.341086,1.39681 4.966711,4.02931 0.59,2.43 -0.599989,4.240005 -2.309989,5.110005 -0.24,0.12 -0.479856,0.219977 -0.739856,0.309977 -1.61,0.51 -3.600126,-0.300036 -4.760126,-1.930036 -1.9,-2.67 -1.039943,-6.229869 1.380057,-7.209869 0.4725,-0.189375 0.966818,-0.29085 1.463203,-0.309387 z" /><clipPath
           id="SVGID_2_"><use
             style="overflow:visible"
             xlink:href="#SVGID_1_"
             id="use2" /></clipPath></g><path
         d="m 89.02,93.69 c -0.23,1.47 0.18,3.23 0.46,4.51 0.25,1.17 0.7,2.29 1.13,3.41 0.46,1.18 1.08,1.88 1.73,2.9 3.64,5.79 9.78,9.03 16.46,9.5 5.42,0.38 14.35,-0.59 18.3,-4.98 3.12,-3.47 -9.27,-5.23 -11.47,-5.91 -6.09,-1.86 -11.54,-4.43 -16.33,-8.68 -2.37,-2.11 -5.78,-5.06 -9.03,-2.89 -0.74,0.49 -1.11,1.26 -1.25,2.14 z"
         style="fill:#6885c4;fill-opacity:1"
         id="path4" /><path
         d="m 22.53,95.54 c -2.07,0.93 -4.14,3.53 -5.32,4.54 -4.81,4.12 -11.19,5.81 -15.9,9.85 -2.52,2.17 0.77,3.7 2.71,4.35 8.84,2.98 19.13,-1.63 21.87,-10.78 0.56,-1.87 1.36,-6.33 -0.4,-7.74 -0.92,-0.73 -1.94,-0.68 -2.96,-0.22 z"
         style="fill:#6885c4;fill-opacity:1"
         id="path5" /></g><path
       style="font-weight:800;font-size:199.7px;line-height:1;font-family:'Public Sans';-inkscape-font-specification:'Public Sans Ultra-Bold';text-align:center;letter-spacing:0px;fill:#6885c4;stroke-width:5.12666;stroke-linecap:round;fill-opacity:1"
       d="m 383.36332,225.40132 -28.97695,-87.6087 h 25.33365 l 15.16632,48.46439 h 0.3389 l 14.48847,-48.46439 h 20.24999 l 14.40375,48.54912 h 0.33891 l 14.9121,-48.54912 h 25.92676 l -29.82424,87.6087 h -21.69034 l -14.74267,-47.78655 -14.99686,47.78655 z m 113.36592,0 v -87.6087 h 27.45185 v 87.6087 z m 77.52576,1.69455 c -7.28659,0 -13.01987,-0.81904 -17.19976,-2.4571 -4.12344,-1.63809 -7.1454,-3.75628 -9.0659,-6.35461 -1.92051,-2.65481 -3.13492,-5.59204 -3.6433,-8.81171 -0.45187,-3.21966 -0.67782,-6.41108 -0.67782,-9.57425 V 99.495596 h 28.2144 v 96.674564 c 0,2.65481 0.62134,4.97072 1.86403,6.9477 1.24266,1.92049 3.92571,3.13493 8.04915,3.64329 l 3.81275,0.2542 v 17.70814 c -1.80752,0.62132 -3.67154,1.15794 -5.59204,1.60982 -1.9205,0.50837 -3.84101,0.76256 -5.76151,0.76256 z m 55.15797,0 c -7.2866,0 -13.01987,-0.81904 -17.19977,-2.4571 -4.12344,-1.63809 -7.14538,-3.75628 -9.0659,-6.35461 -1.92048,-2.65481 -3.13492,-5.59204 -3.64328,-8.81171 -0.45189,-3.21966 -0.67784,-6.41108 -0.67784,-9.57425 V 99.495596 h 28.21441 v 96.674564 c 0,2.65481 0.62133,4.97072 1.86402,6.9477 1.24268,1.92049 3.92571,3.13493 8.04914,3.64329 l 3.81277,0.2542 v 17.70814 c -1.80752,0.62132 -3.67154,1.15794 -5.59204,1.60982 -1.9205,0.50837 -3.841,0.76256 -5.76151,0.76256 z m 38.38172,26.26567 c -6.38285,0 -10.92991,-0.56486 -13.64121,-1.69456 l -4.06696,-1.69457 v -18.30125 l 8.47283,0.42366 c 4.06693,0.28243 7.28661,0.14118 9.65896,-0.42366 2.3724,-0.56485 4.15169,-1.35563 5.33787,-2.37236 1.1862,-0.96025 1.97698,-1.94876 2.37238,-2.96549 0.45188,-0.96024 0.73431,-1.63808 0.84729,-2.03346 l 1.01674,-3.30439 -34.06063,-83.20284 h 28.46858 l 18.8096,52.36185 19.23323,-52.36185 h 28.21442 l -34.82319,85.32104 c -3.4456,8.30334 -7.00418,14.62968 -10.67572,18.97905 -3.67154,4.40586 -7.59728,7.37134 -11.77719,8.89644 -4.12342,1.58159 -8.58576,2.37239 -13.387,2.37239 z"
       id="text212"
       aria-label="willy"
       sodipodi:nodetypes="cccccccccccccccccccccscccsccscccccsscccsccscccccssscccsccccccccccccs" /></g></svg>
